STARTFONT 2.1
FONT -FontForge-Mx437 HP 100LX 6x8-Book-R-Normal--8-80-75-75-M-50-ISO8859-1
SIZE 8 75 75
FONTBOUNDINGBOX 6 8 0 -1
COMMENT "Generated by fontforge, http://fontforge.sourceforge.net"
COMMENT "Outline (vector) version by VileR, 2020, reduced to 5x7 by Bradan Lane"
STARTPROPERTIES 40
FOUNDRY "FontForge"
FAMILY_NAME "Mx437 HP 100LX 6x8"
WEIGHT_NAME "Book"
SLANT "R"
SETWIDTH_NAME "Normal"
ADD_STYLE_NAME ""
PIXEL_SIZE 8
POINT_SIZE 80
RESOLUTION_X 75
RESOLUTION_Y 75
SPACING "M"
AVERAGE_WIDTH 50
CHARSET_REGISTRY "ISO8859"
CHARSET_ENCODING "1"
FONTNAME_REGISTRY ""
CHARSET_COLLECTIONS "ISOLatin1Encoding"
FONT_NAME "100LX5x7"
FACE_NAME "Mx437 HP 100LX 6x8"
COPYRIGHT "Outline (vector) version by VileR, 2020, reduced to 5x7 by Bradan Lane"
FONT_VERSION "v2.2-2020-11"
FONT_ASCENT 8
FONT_DESCENT 0
UNDERLINE_POSITION 0
UNDERLINE_THICKNESS 1
X_HEIGHT 4
CAP_HEIGHT 6
RAW_ASCENT 1000
RAW_DESCENT 0
NORM_SPACE 5
RELATIVE_WEIGHT 40
RELATIVE_SETWIDTH 50
SUPERSCRIPT_X 0
SUPERSCRIPT_Y 4
SUPERSCRIPT_SIZE 8
SUBSCRIPT_X 0
SUBSCRIPT_Y 4
SUBSCRIPT_SIZE 8
FIGURE_WIDTH 5
AVG_LOWERCASE_WIDTH 50
AVG_UPPERCASE_WIDTH 50
ENDPROPERTIES
CHARS 126
STARTCHAR uni0001
ENCODING 1
SWIDTH 650 0
DWIDTH 5 0
BBX 5 7 0 0
BITMAP
70
88
D8
88
A8
88
70
ENDCHAR
STARTCHAR uni0002
ENCODING 2
SWIDTH 650 0
DWIDTH 5 0
BBX 5 7 0 0
BITMAP
70
F8
A8
F8
D8
F8
70
ENDCHAR
STARTCHAR uni0003
ENCODING 3
SWIDTH 650 0
DWIDTH 5 0
BBX 5 6 0 0
BITMAP
50
F8
F8
F8
70
20
ENDCHAR
STARTCHAR uni0004
ENCODING 4
SWIDTH 650 0
DWIDTH 5 0
BBX 5 6 0 0
BITMAP
20
70
F8
F8
70
20
ENDCHAR
STARTCHAR uni0005
ENCODING 5
SWIDTH 650 0
DWIDTH 5 0
BBX 5 6 0 0
BITMAP
70
70
F8
D8
20
70
ENDCHAR
STARTCHAR uni0006
ENCODING 6
SWIDTH 650 0
DWIDTH 5 0
BBX 5 6 0 0
BITMAP
20
70
F8
D8
20
70
ENDCHAR
STARTCHAR uni0007
ENCODING 7
SWIDTH 650 0
DWIDTH 5 0
BBX 2 2 2 2
BITMAP
C0
C0
ENDCHAR
STARTCHAR uni0008
ENCODING 8
SWIDTH 650 0
DWIDTH 5 0
BBX 6 7 0 0
BITMAP
FC
FC
FC
CC
CC
FC
FC
ENDCHAR
STARTCHAR uni0009
ENCODING 9
SWIDTH 650 0
DWIDTH 5 0
BBX 4 4 1 1
BITMAP
60
90
90
60
ENDCHAR
STARTCHAR uni000A
ENCODING 10
SWIDTH 650 0
DWIDTH 5 0
BBX 6 7 0 0
BITMAP
FC
FC
CC
B4
B4
CC
FC
ENDCHAR
STARTCHAR uni000B
ENCODING 11
SWIDTH 650 0
DWIDTH 5 0
BBX 6 7 0 0
BITMAP
1C
0C
14
70
88
88
70
ENDCHAR
STARTCHAR uni000C
ENCODING 12
SWIDTH 650 0
DWIDTH 5 0
BBX 5 7 0 0
BITMAP
70
88
88
70
20
70
20
ENDCHAR
STARTCHAR uni000D
ENCODING 13
SWIDTH 650 0
DWIDTH 5 0
BBX 5 7 0 0
BITMAP
20
30
28
20
20
E0
C0
ENDCHAR
STARTCHAR uni000E
ENCODING 14
SWIDTH 650 0
DWIDTH 5 0
BBX 6 7 0 0
BITMAP
30
28
34
2C
E4
DC
18
ENDCHAR
STARTCHAR uni000F
ENCODING 15
SWIDTH 650 0
DWIDTH 5 0
BBX 5 5 0 1
BITMAP
A8
70
D8
70
A8
ENDCHAR
STARTCHAR uni0010
ENCODING 16
SWIDTH 650 0
DWIDTH 5 0
BBX 5 5 0 1
BITMAP
C0
F0
F8
F0
C0
ENDCHAR
STARTCHAR uni0011
ENCODING 17
SWIDTH 650 0
DWIDTH 5 0
BBX 5 5 0 1
BITMAP
18
78
F8
78
18
ENDCHAR
STARTCHAR uni0012
ENCODING 18
SWIDTH 650 0
DWIDTH 5 0
BBX 5 7 0 0
BITMAP
20
70
F8
20
F8
70
20
ENDCHAR
STARTCHAR uni0013
ENCODING 19
SWIDTH 650 0
DWIDTH 5 0
BBX 3 7 1 0
BITMAP
A0
A0
A0
A0
A0
00
A0
ENDCHAR
STARTCHAR uni0014
ENCODING 20
SWIDTH 650 0
DWIDTH 5 0
BBX 5 7 0 0
BITMAP
78
A8
A8
68
28
28
28
ENDCHAR
STARTCHAR uni0015
ENCODING 21
SWIDTH 650 0
DWIDTH 5 0
BBX 6 7 0 0
BITMAP
38
44
30
48
30
88
70
ENDCHAR
STARTCHAR uni0016
ENCODING 22
SWIDTH 650 0
DWIDTH 5 0
BBX 5 2 0 0
BITMAP
F8
F8
ENDCHAR
STARTCHAR uni0017
ENCODING 23
SWIDTH 650 0
DWIDTH 5 0
BBX 5 7 0 0
BITMAP
20
70
F8
20
F8
70
F8
ENDCHAR
STARTCHAR uni0018
ENCODING 24
SWIDTH 650 0
DWIDTH 5 0
BBX 5 7 0 0
BITMAP
20
70
F8
20
20
20
20
ENDCHAR
STARTCHAR uni0019
ENCODING 25
SWIDTH 650 0
DWIDTH 5 0
BBX 5 7 0 0
BITMAP
20
20
20
20
F8
70
20
ENDCHAR
STARTCHAR uni001A
ENCODING 26
SWIDTH 650 0
DWIDTH 5 0
BBX 6 5 0 1
BITMAP
10
18
FC
18
10
ENDCHAR
STARTCHAR uni001B
ENCODING 27
SWIDTH 650 0
DWIDTH 5 0
BBX 6 5 0 1
BITMAP
20
60
FC
60
20
ENDCHAR
STARTCHAR uni001C
ENCODING 28
SWIDTH 650 0
DWIDTH 5 0
BBX 5 4 0 3
BITMAP
80
80
80
F8
ENDCHAR
STARTCHAR uni001D
ENCODING 29
SWIDTH 650 0
DWIDTH 5 0
BBX 6 3 0 2
BITMAP
48
FC
48
ENDCHAR
STARTCHAR uni001E
ENCODING 30
SWIDTH 650 0
DWIDTH 5 0
BBX 5 6 0 0
BITMAP
20
20
70
70
F8
F8
ENDCHAR
STARTCHAR uni001F
ENCODING 31
SWIDTH 650 0
DWIDTH 5 0
BBX 5 6 0 0
BITMAP
F8
F8
70
70
20
20
ENDCHAR
STARTCHAR space
ENCODING 32
SWIDTH 650 0
DWIDTH 5 0
BBX 1 1 0 0
BITMAP
00
ENDCHAR
STARTCHAR exclam
ENCODING 33
SWIDTH 650 0
DWIDTH 5 0
BBX 1 7 2 0
BITMAP
80
80
80
80
80
00
80
ENDCHAR
STARTCHAR quotedbl
ENCODING 34
SWIDTH 650 0
DWIDTH 5 0
BBX 3 3 1 4
BITMAP
A0
A0
A0
ENDCHAR
STARTCHAR numbersign
ENCODING 35
SWIDTH 650 0
DWIDTH 5 0
BBX 5 7 0 0
BITMAP
50
50
F8
50
F8
50
50
ENDCHAR
STARTCHAR dollar
ENCODING 36
SWIDTH 650 0
DWIDTH 5 0
BBX 5 7 0 0
BITMAP
20
78
80
70
08
F0
20
ENDCHAR
STARTCHAR percent
ENCODING 37
SWIDTH 650 0
DWIDTH 5 0
BBX 5 7 0 0
BITMAP
40
A8
50
20
50
A8
10
ENDCHAR
STARTCHAR ampersand
ENCODING 38
SWIDTH 650 0
DWIDTH 5 0
BBX 5 7 0 0
BITMAP
40
A0
A0
40
A8
90
68
ENDCHAR
STARTCHAR quotesingle
ENCODING 39
SWIDTH 650 0
DWIDTH 5 0
BBX 2 4 2 3
BITMAP
C0
C0
40
80
ENDCHAR
STARTCHAR parenleft
ENCODING 40
SWIDTH 650 0
DWIDTH 5 0
BBX 2 7 2 0
BITMAP
40
80
80
80
80
80
40
ENDCHAR
STARTCHAR parenright
ENCODING 41
SWIDTH 650 0
DWIDTH 5 0
BBX 2 7 2 0
BITMAP
80
40
40
40
40
40
80
ENDCHAR
STARTCHAR asterisk
ENCODING 42
SWIDTH 650 0
DWIDTH 5 0
BBX 5 5 0 1
BITMAP
50
20
F8
20
50
ENDCHAR
STARTCHAR plus
ENCODING 43
SWIDTH 650 0
DWIDTH 5 0
BBX 5 5 0 1
BITMAP
20
20
F8
20
20
ENDCHAR
STARTCHAR comma
ENCODING 44
SWIDTH 650 0
DWIDTH 5 0
BBX 2 3 2 -1
BITMAP
C0
40
80
ENDCHAR
STARTCHAR hyphen
ENCODING 45
SWIDTH 650 0
DWIDTH 5 0
BBX 5 1 0 3
BITMAP
F8
ENDCHAR
STARTCHAR period
ENCODING 46
SWIDTH 650 0
DWIDTH 5 0
BBX 2 2 2 0
BITMAP
C0
C0
ENDCHAR
STARTCHAR slash
ENCODING 47
SWIDTH 650 0
DWIDTH 5 0
BBX 5 6 0 0
BITMAP
08
18
30
60
C0
80
ENDCHAR
STARTCHAR zero
ENCODING 48
SWIDTH 650 0
DWIDTH 5 0
BBX 5 7 0 0
BITMAP
70
88
98
A8
C8
88
70
ENDCHAR
STARTCHAR one
ENCODING 49
SWIDTH 650 0
DWIDTH 5 0
BBX 3 7 1 0
BITMAP
20
60
20
20
20
20
70
ENDCHAR
STARTCHAR two
ENCODING 50
SWIDTH 650 0
DWIDTH 5 0
BBX 5 7 0 0
BITMAP
70
88
08
30
40
80
F8
ENDCHAR
STARTCHAR three
ENCODING 51
SWIDTH 650 0
DWIDTH 5 0
BBX 5 7 0 0
BITMAP
70
88
08
70
08
88
70
ENDCHAR
STARTCHAR four
ENCODING 52
SWIDTH 650 0
DWIDTH 5 0
BBX 5 7 0 0
BITMAP
10
30
50
90
F8
10
38
ENDCHAR
STARTCHAR five
ENCODING 53
SWIDTH 650 0
DWIDTH 5 0
BBX 5 7 0 0
BITMAP
F8
80
F0
08
08
88
70
ENDCHAR
STARTCHAR six
ENCODING 54
SWIDTH 650 0
DWIDTH 5 0
BBX 5 7 0 0
BITMAP
30
40
80
F0
88
88
70
ENDCHAR
STARTCHAR seven
ENCODING 55
SWIDTH 650 0
DWIDTH 5 0
BBX 5 7 0 0
BITMAP
F8
08
10
20
20
20
20
ENDCHAR
STARTCHAR eight
ENCODING 56
SWIDTH 650 0
DWIDTH 5 0
BBX 5 7 0 0
BITMAP
70
88
88
70
88
88
70
ENDCHAR
STARTCHAR nine
ENCODING 57
SWIDTH 650 0
DWIDTH 5 0
BBX 5 7 0 0
BITMAP
70
88
88
78
08
10
60
ENDCHAR
STARTCHAR colon
ENCODING 58
SWIDTH 650 0
DWIDTH 5 0
BBX 2 5 2 0
BITMAP
C0
C0
00
C0
C0
ENDCHAR
STARTCHAR semicolon
ENCODING 59
SWIDTH 650 0
DWIDTH 5 0
BBX 2 5 2 0
BITMAP
C0
C0
00
40
80
ENDCHAR
STARTCHAR less
ENCODING 60
SWIDTH 650 0
DWIDTH 5 0
BBX 4 7 1 0
BITMAP
10
20
40
80
40
20
10
ENDCHAR
STARTCHAR equal
ENCODING 61
SWIDTH 650 0
DWIDTH 5 0
BBX 5 3 0 2
BITMAP
F8
00
F8
ENDCHAR
STARTCHAR greater
ENCODING 62
SWIDTH 650 0
DWIDTH 5 0
BBX 4 7 1 0
BITMAP
80
40
20
10
20
40
80
ENDCHAR
STARTCHAR question
ENCODING 63
SWIDTH 650 0
DWIDTH 5 0
BBX 5 7 0 0
BITMAP
70
88
88
10
20
00
20
ENDCHAR
STARTCHAR at
ENCODING 64
SWIDTH 650 0
DWIDTH 5 0
BBX 5 7 0 0
BITMAP
70
88
B8
A8
B8
80
78
ENDCHAR
STARTCHAR A
ENCODING 65
SWIDTH 650 0
DWIDTH 5 0
BBX 5 7 0 0
BITMAP
70
88
88
88
F8
88
88
ENDCHAR
STARTCHAR B
ENCODING 66
SWIDTH 650 0
DWIDTH 5 0
BBX 5 7 0 0
BITMAP
F0
88
88
F0
88
88
F0
ENDCHAR
STARTCHAR C
ENCODING 67
SWIDTH 650 0
DWIDTH 5 0
BBX 5 7 0 0
BITMAP
70
88
80
80
80
88
70
ENDCHAR
STARTCHAR D
ENCODING 68
SWIDTH 650 0
DWIDTH 5 0
BBX 5 7 0 0
BITMAP
E0
90
88
88
88
90
E0
ENDCHAR
STARTCHAR E
ENCODING 69
SWIDTH 650 0
DWIDTH 5 0
BBX 5 7 0 0
BITMAP
F8
80
80
F0
80
80
F8
ENDCHAR
STARTCHAR F
ENCODING 70
SWIDTH 650 0
DWIDTH 5 0
BBX 5 7 0 0
BITMAP
F8
80
80
F0
80
80
80
ENDCHAR
STARTCHAR G
ENCODING 71
SWIDTH 650 0
DWIDTH 5 0
BBX 5 7 0 0
BITMAP
70
88
80
80
98
88
78
ENDCHAR
STARTCHAR H
ENCODING 72
SWIDTH 650 0
DWIDTH 5 0
BBX 5 7 0 0
BITMAP
88
88
88
F8
88
88
88
ENDCHAR
STARTCHAR I
ENCODING 73
SWIDTH 650 0
DWIDTH 5 0
BBX 3 7 1 0
BITMAP
E0
40
40
40
40
40
E0
ENDCHAR
STARTCHAR J
ENCODING 74
SWIDTH 650 0
DWIDTH 5 0
BBX 5 7 0 0
BITMAP
08
08
08
08
88
88
70
ENDCHAR
STARTCHAR K
ENCODING 75
SWIDTH 650 0
DWIDTH 5 0
BBX 5 7 0 0
BITMAP
88
90
A0
C0
A0
90
88
ENDCHAR
STARTCHAR L
ENCODING 76
SWIDTH 650 0
DWIDTH 5 0
BBX 5 7 0 0
BITMAP
80
80
80
80
80
80
F8
ENDCHAR
STARTCHAR M
ENCODING 77
SWIDTH 650 0
DWIDTH 5 0
BBX 5 7 0 0
BITMAP
88
D8
D8
A8
A8
88
88
ENDCHAR
STARTCHAR N
ENCODING 78
SWIDTH 650 0
DWIDTH 5 0
BBX 5 7 0 0
BITMAP
88
C8
C8
A8
98
98
88
ENDCHAR
STARTCHAR O
ENCODING 79
SWIDTH 650 0
DWIDTH 5 0
BBX 5 7 0 0
BITMAP
70
88
88
88
88
88
70
ENDCHAR
STARTCHAR P
ENCODING 80
SWIDTH 650 0
DWIDTH 5 0
BBX 5 7 0 0
BITMAP
F0
88
88
F0
80
80
80
ENDCHAR
STARTCHAR Q
ENCODING 81
SWIDTH 650 0
DWIDTH 5 0
BBX 5 7 0 0
BITMAP
70
88
88
88
A8
90
68
ENDCHAR
STARTCHAR R
ENCODING 82
SWIDTH 650 0
DWIDTH 5 0
BBX 5 7 0 0
BITMAP
F0
88
88
F0
90
88
88
ENDCHAR
STARTCHAR S
ENCODING 83
SWIDTH 650 0
DWIDTH 5 0
BBX 5 7 0 0
BITMAP
70
88
80
70
08
88
70
ENDCHAR
STARTCHAR T
ENCODING 84
SWIDTH 650 0
DWIDTH 5 0
BBX 5 7 0 0
BITMAP
F8
20
20
20
20
20
20
ENDCHAR
STARTCHAR U
ENCODING 85
SWIDTH 650 0
DWIDTH 5 0
BBX 5 7 0 0
BITMAP
88
88
88
88
88
88
70
ENDCHAR
STARTCHAR V
ENCODING 86
SWIDTH 650 0
DWIDTH 5 0
BBX 5 7 0 0
BITMAP
88
88
88
50
50
20
20
ENDCHAR
STARTCHAR W
ENCODING 87
SWIDTH 650 0
DWIDTH 5 0
BBX 5 7 0 0
BITMAP
88
88
88
A8
A8
D8
88
ENDCHAR
STARTCHAR X
ENCODING 88
SWIDTH 650 0
DWIDTH 5 0
BBX 5 7 0 0
BITMAP
88
88
50
20
50
88
88
ENDCHAR
STARTCHAR Y
ENCODING 89
SWIDTH 650 0
DWIDTH 5 0
BBX 5 7 0 0
BITMAP
88
88
50
70
20
20
20
ENDCHAR
STARTCHAR Z
ENCODING 90
SWIDTH 650 0
DWIDTH 5 0
BBX 5 7 0 0
BITMAP
F8
08
10
20
40
80
F8
ENDCHAR
STARTCHAR bracketleft
ENCODING 91
SWIDTH 650 0
DWIDTH 5 0
BBX 3 7 1 0
BITMAP
E0
80
80
80
80
80
E0
ENDCHAR
STARTCHAR backslash
ENCODING 92
SWIDTH 650 0
DWIDTH 5 0
BBX 5 6 0 0
BITMAP
80
C0
60
30
18
08
ENDCHAR
STARTCHAR bracketright
ENCODING 93
SWIDTH 650 0
DWIDTH 5 0
BBX 3 7 1 0
BITMAP
E0
20
20
20
20
20
E0
ENDCHAR
STARTCHAR asciicircum
ENCODING 94
SWIDTH 650 0
DWIDTH 5 0
BBX 5 3 0 4
BITMAP
20
50
88
ENDCHAR
STARTCHAR underscore
ENCODING 95
SWIDTH 650 0
DWIDTH 5 0
BBX 6 1 0 0
BITMAP
FC
ENDCHAR
STARTCHAR grave
ENCODING 96
SWIDTH 650 0
DWIDTH 5 0
BBX 2 2 2 5
BITMAP
80
40
ENDCHAR
STARTCHAR a
ENCODING 97
SWIDTH 650 0
DWIDTH 5 0
BBX 5 5 0 0
BITMAP
70
08
78
88
78
ENDCHAR
STARTCHAR b
ENCODING 98
SWIDTH 650 0
DWIDTH 5 0
BBX 5 7 0 0
BITMAP
80
80
B0
C8
88
C8
B0
ENDCHAR
STARTCHAR c
ENCODING 99
SWIDTH 650 0
DWIDTH 5 0
BBX 5 5 0 0
BITMAP
70
88
80
88
70
ENDCHAR
STARTCHAR d
ENCODING 100
SWIDTH 650 0
DWIDTH 5 0
BBX 5 7 0 0
BITMAP
08
08
68
98
88
98
68
ENDCHAR
STARTCHAR e
ENCODING 101
SWIDTH 650 0
DWIDTH 5 0
BBX 5 5 0 0
BITMAP
70
88
F8
80
70
ENDCHAR
STARTCHAR f
ENCODING 102
SWIDTH 650 0
DWIDTH 5 0
BBX 5 7 0 0
BITMAP
30
48
40
E0
40
40
40
ENDCHAR
STARTCHAR g
ENCODING 103
SWIDTH 650 0
DWIDTH 5 0
BBX 5 6 0 0
BITMAP
68
98
88
78
08
70
ENDCHAR
STARTCHAR h
ENCODING 104
SWIDTH 650 0
DWIDTH 5 0
BBX 5 7 0 0
BITMAP
80
80
B0
C8
88
88
88
ENDCHAR
STARTCHAR i
ENCODING 105
SWIDTH 650 0
DWIDTH 5 0
BBX 3 7 1 0
BITMAP
40
00
C0
40
40
40
E0
ENDCHAR
STARTCHAR j
ENCODING 106
SWIDTH 650 0
DWIDTH 5 0
BBX 4 7 1 0
BITMAP
10
00
30
10
10
90
60
ENDCHAR
STARTCHAR k
ENCODING 107
SWIDTH 650 0
DWIDTH 5 0
BBX 4 7 1 0
BITMAP
80
80
90
A0
C0
A0
90
ENDCHAR
STARTCHAR l
ENCODING 108
SWIDTH 650 0
DWIDTH 5 0
BBX 3 7 1 0
BITMAP
C0
40
40
40
40
40
E0
ENDCHAR
STARTCHAR m
ENCODING 109
SWIDTH 650 0
DWIDTH 5 0
BBX 5 5 0 0
BITMAP
D0
A8
A8
A8
A8
ENDCHAR
STARTCHAR n
ENCODING 110
SWIDTH 650 0
DWIDTH 5 0
BBX 5 5 0 0
BITMAP
B0
C8
88
88
88
ENDCHAR
STARTCHAR o
ENCODING 111
SWIDTH 650 0
DWIDTH 5 0
BBX 5 5 0 0
BITMAP
70
88
88
88
70
ENDCHAR
STARTCHAR p
ENCODING 112
SWIDTH 650 0
DWIDTH 5 0
BBX 5 6 0 0
BITMAP
B0
C8
88
C8
B0
80
ENDCHAR
STARTCHAR q
ENCODING 113
SWIDTH 650 0
DWIDTH 5 0
BBX 5 6 0 0
BITMAP
68
98
88
98
68
08
ENDCHAR
STARTCHAR r
ENCODING 114
SWIDTH 650 0
DWIDTH 5 0
BBX 5 5 0 0
BITMAP
B0
48
40
40
E0
ENDCHAR
STARTCHAR s
ENCODING 115
SWIDTH 650 0
DWIDTH 5 0
BBX 5 5 0 0
BITMAP
78
80
70
08
F0
ENDCHAR
STARTCHAR t
ENCODING 116
SWIDTH 650 0
DWIDTH 5 0
BBX 5 7 0 0
BITMAP
40
40
E0
40
40
48
30
ENDCHAR
STARTCHAR u
ENCODING 117
SWIDTH 650 0
DWIDTH 5 0
BBX 5 5 0 0
BITMAP
88
88
88
98
68
ENDCHAR
STARTCHAR v
ENCODING 118
SWIDTH 650 0
DWIDTH 5 0
BBX 5 5 0 0
BITMAP
88
88
88
50
20
ENDCHAR
STARTCHAR w
ENCODING 119
SWIDTH 650 0
DWIDTH 5 0
BBX 5 5 0 0
BITMAP
88
88
A8
A8
50
ENDCHAR
STARTCHAR x
ENCODING 120
SWIDTH 650 0
DWIDTH 5 0
BBX 5 5 0 0
BITMAP
88
50
20
50
88
ENDCHAR
STARTCHAR y
ENCODING 121
SWIDTH 650 0
DWIDTH 5 0
BBX 5 6 0 0
BITMAP
88
88
88
78
08
70
ENDCHAR
STARTCHAR z
ENCODING 122
SWIDTH 650 0
DWIDTH 5 0
BBX 5 5 0 0
BITMAP
F8
10
20
40
F8
ENDCHAR
STARTCHAR braceleft
ENCODING 123
SWIDTH 650 0
DWIDTH 5 0
BBX 4 7 1 0
BITMAP
30
40
40
80
40
40
30
ENDCHAR
STARTCHAR bar
ENCODING 124
SWIDTH 650 0
DWIDTH 5 0
BBX 1 7 2 0
BITMAP
80
80
80
80
80
80
80
ENDCHAR
STARTCHAR braceright
ENCODING 125
SWIDTH 650 0
DWIDTH 5 0
BBX 4 7 1 0
BITMAP
C0
20
20
10
20
20
C0
ENDCHAR
STARTCHAR asciitilde
ENCODING 126
SWIDTH 650 0
DWIDTH 5 0
BBX 5 3 0 4
BITMAP
40
A8
10
ENDCHAR
ENDFONT
